HIERARCHY
ROOT root     
{
	OFFSET 0.0000 0.0000 0.0000
	CHANNELS 6 Xposition Yposition Zposition Zrotation Yrotation Xrotation
	JOINT pelvis   
	{
		OFFSET 0.0000 0.0000 0.0000
		CHANNELS 3 Zrotation Yrotation Xrotation
		JOINT thorax   
		{
			OFFSET 0.0000 23.0750 -5.0000
			CHANNELS 3 Zrotation Yrotation Xrotation
			JOINT rclavicle
			{
				OFFSET 0.0000 28.0009 0.0000
				CHANNELS 3 Zrotation Yrotation Xrotation
				JOINT rhumerus 
				{
					OFFSET -18.5725 5.5939 0.0000
					CHANNELS 3 Zrotation Yrotation Xrotation
					JOINT rradius  
					{
						OFFSET -24.8459 0.0000 0.0000
						CHANNELS 3 Zrotation Yrotation Xrotation
						JOINT rhand    
						{
							OFFSET -24.5477 0.0000 0.0000
							CHANNELS 3 Zrotation Yrotation Xrotation
							End Site
							{
								OFFSET -8.1826 0.0000 0.0000
							}
						}
					}
				}
			}
			JOINT lclavicle
			{
				OFFSET 0.0000 28.0009 0.0000
				CHANNELS 3 Zrotation Yrotation Xrotation
				JOINT lhumerus 
				{
					OFFSET 18.5725 5.5939 0.0000
					CHANNELS 3 Zrotation Yrotation Xrotation
					JOINT lradius  
					{
						OFFSET 24.8459 0.0000 0.0000
						CHANNELS 3 Zrotation Yrotation Xrotation
						JOINT lhand    
						{
							OFFSET 24.5477 0.0000 0.0000
							CHANNELS 3 Zrotation Yrotation Xrotation
							End Site
							{
								OFFSET 8.1826 0.0000 0.0000
							}
						}
					}
				}
			}
			JOINT head     
			{
				OFFSET 0.0000 35.2030 0.0000
				CHANNELS 3 Zrotation Yrotation Xrotation
				End Site
				{
					OFFSET 0.0000 11.7343 0.0000
				}
			}
		}
		JOINT rfemur   
		{
			OFFSET -8.2817 0.0000 0.0000
			CHANNELS 3 Zrotation Yrotation Xrotation
			JOINT rtibia   
			{
				OFFSET 0.0000 -43.3627 0.0000
				CHANNELS 3 Zrotation Yrotation Xrotation
				JOINT rfoot    
				{
					OFFSET 0.0000 -38.2947 0.0000
					CHANNELS 3 Zrotation Yrotation Xrotation
					JOINT rtoes    
					{
						OFFSET 0.0000 0.0000 16.6054
						CHANNELS 3 Zrotation Yrotation Xrotation
						End Site
						{
							OFFSET 0.0000 0.0000 5.5351
						}
					}
				}
			}
		}
		JOINT lfemur   
		{
			OFFSET 8.2817 0.0000 0.0000
			CHANNELS 3 Zrotation Yrotation Xrotation
			JOINT ltibia   
			{
				OFFSET 0.0000 -43.3627 0.0000
				CHANNELS 3 Zrotation Yrotation Xrotation
				JOINT lfoot    
				{
					OFFSET 0.0000 -38.2947 0.0000
					CHANNELS 3 Zrotation Yrotation Xrotation
					JOINT ltoes    
					{
						OFFSET 0.0000 0.0000 16.6054
						CHANNELS 3 Zrotation Yrotation Xrotation
						End Site
						{
							OFFSET 0.0000 0.0000 5.5351
						}
					}
				}
			}
		}
	}
}
MOTION
Frames: 11
Frame Time: .0333333
49.117 86.426 16.592 -161.981 -88.0721 -176.529 0 -0 0 1.85888 -8.95062 -9.14605 27.0209 -9.30524 -6.44474e-06 43.0045 9.10489 4.85404 -1.19965e-05 87.299 -1.21965e-05 6.26508 4.51849 0.247404 -24.9056 11.9564 8.20458e-05 -47.8935 -3.08127 12.809 6.77844e-07 -62.4856 -1.11735e-06 1.18794 1.94644 0.0202012 9.47006 4.98462 -9.71182 -0.922852 -13.8355 -29.9923 -0 -0 57.1721 3.58572e-06 2.65614 11.9088 0.548506 -5.48447e-06 -66.4905 -4.34333 4.19695 -12.2384 -0 -0 22.3934 -2.72593e-08 3.24636 1.0053 0.0570009 3.98779e-08 -55.999 
47.717 86.75 16.503 -148.967 -88.4766 170.647 0 -0 0 2.84025 -9.83871 -9.49944 27.1957 -9.54221 3.7463e-06 43.0143 8.85053 3.6997 -2.59232e-06 86.5668 -2.44134e-06 5.91431 4.57671 0.236507 -24.8162 11.8175 7.00106e-06 -48.3937 -3.40749 13.5485 -8.3409e-07 -64.3265 5.24501e-07 1.68151 1.82613 0.0268005 9.72253 4.99308 -9.70358 0.00469325 -13.9021 -31.2493 -0 -0 55.6439 1.06601e-06 2.16689 11.0932 0.417095 2.42567e-06 -65.3589 -3.76857 3.92268 -11.2306 -0 -0 21.3526 5.43542e-07 2.70513 2.90258 0.137104 2.23247e-06 -58.5223 
46.319 87.058 16.405 -128.754 -88.7355 150.66 0 -0 0 3.84716 -10.6437 -9.90273 27.3688 -9.78764 6.77476e-06 42.9875 8.61537 2.49446 -0 85.7715 -0 5.5019 4.66505 0.224299 -24.7058 11.6458 -4.12902e-05 -48.8362 -3.75478 14.2922 0 -66.1248 0 2.29744 1.66932 0.0335011 9.91262 4.96528 -9.71862 0.928777 -13.8672 -32.4746 -0 -0 53.9256 4.3454e-06 1.87957 10.3342 0.3373 5.10689e-06 -64.5159 -3.17183 3.56145 -10.2988 -0 -0 20.3694 1.12736e-06 2.19182 4.8489 0.185399 -1.51348e-06 -60.7367 
44.921 87.345 16.296 -104.675 -88.7674 126.837 0 -0 0 4.87392 -11.3504 -10.338 27.5321 -10.0314 -5.3135e-05 42.9356 8.40394 1.24956 -3.56001e-06 84.9279 -3.25787e-06 5.03948 4.78955 0.210902 -24.567 11.4442 1.20878e-05 -49.2275 -4.11196 15.0233 6.33212e-07 -67.8885 -9.40768e-07 2.98857 1.46861 0.0382997 10.0337 4.9146 -9.75898 1.84363 -13.7203 -33.6568 -0 -0 52.0217 -4.95168e-06 1.81337 9.63882 0.303696 -5.49856e-06 -64.1333 -2.55762 3.1556 -9.42941 -0 -0 19.457 1.60899e-06 1.69755 6.82885 0.201901 8.47863e-07 -62.5997 
43.518 87.609 16.177 -85.9129 -88.5733 108.336 0 -0 0 5.91101 -11.9552 -10.7844 27.6784 -10.2632 2.88015e-05 42.8677 8.22274 -0.0222868 -1.36938e-06 84.0098 -1.52052e-06 4.53839 4.95247 0.196404 -24.3984 11.2182 2.00655e-05 -49.5692 -4.47061 15.7231 0 -69.6174 0 3.70786 1.22116 0.0394993 10.0787 4.85507 -9.8255 2.74588 -13.4693 -34.78 -0 -0 49.9285 -6.37925e-06 1.96798 9.01116 0.308405 -4.346e-06 -64.3009 -1.93559 2.75416 -8.60561 -0 -0 18.6262 -3.85024e-07 1.21129 8.82385 0.185803 1.58363e-06 -64.1162 
42.107 87.842 16.048 -75.1969 -88.2536 97.8782 0 -0 0 6.94537 -12.4647 -11.2216 27.8028 -10.4738 3.92878e-05 42.7961 8.07735 -1.30737 -4.88835e-06 83.0314 -4.96456e-06 4.00958 5.14982 0.1804 -24.1956 10.9741 8.88955e-05 -49.8596 -4.81959 16.3767 1.0993e-06 -71.3269 -1.53192e-06 4.41096 0.930301 0.0357995 10.041 4.80048 -9.91645 3.6344 -13.1357 -35.8224 -0 -0 47.6335 -7.04971e-07 2.32354 8.46328 0.342194 1.72655e-06 -65.1104 -1.31976 2.40787 -7.80901 -0 -0 17.8801 4.8188e-07 0.723496 10.8102 0.135701 -5.89115e-07 -65.3237 
40.744 88.072 15.845 -49.5888 -87.2996 72.7591 0 -0 0 8.66963 -13.7434 -12.0471 27.8021 -10.6573 8.05901e-05 42.7013 7.96143 -2.57788 -0 81.9857 -0 3.46249 5.37251 0.162498 -24.1189 10.7406 2.94968e-06 -50.0488 -5.14646 16.9764 -1.17504e-06 -73.0223 8.6984e-07 5.06143 0.605599 0.0268002 9.78581 4.76845 -10.0052 5.10127 -13.5937 -36.9111 -0 -0 44.9258 2.57138e-06 2.78895 8.03183 0.389995 4.61208e-06 -66.3416 -0.190299 1.42363 -7.61573 -0 -0 17.7209 9.32193e-08 0.0282001 12.587 0.00610006 8.04433e-09 -66.3505 
39.301 88.234 15.705 -50.0261 -86.9969 73.4 0 -0 0 9.64978 -14.1009 -12.4206 27.8687 -10.8067 -1.46455e-05 42.6597 7.90468 -3.8472 -0 80.8693 -0 2.90455 5.60532 0.142204 -23.85 10.4861 -2.15707e-05 -50.2122 -5.4594 17.4955 0 -74.709 0 5.63037 0.262304 0.0129001 9.56439 4.75641 -10.1341 5.95831 -13.1868 -37.7175 -0 -0 42.1909 6.40773e-06 3.44323 7.68019 0.460695 5.49799e-06 -67.9306 0.358594 1.32375 -6.81896 -0 -0 17.1405 1.52249e-06 -0.479297 14.4735 -0.119799 -3.33874e-07 -67.1775 
37.837 88.351 15.565 -51.1857 -86.744 74.7178 0 -0 0 10.5666 -14.4207 -12.7355 27.9048 -10.9221 4.43496e-05 42.6474 7.89498 -5.0897 -1.83219e-06 79.7006 -1.52914e-06 2.34164 5.83036 0.119298 -23.5496 10.2375 3.15106e-05 -50.2972 -5.74302 17.9371 0 -76.4024 0 6.09956 -0.0788002 -0.00420003 9.24849 4.77487 -10.2737 6.79734 -12.7985 -38.3647 -0 -0 39.2373 -3.06865e-06 4.17379 7.45935 0.5428 -5.68317e-06 -69.4974 0.839691 1.38244 -5.99195 -0 -0 16.6331 -2.53791e-06 -0.985301 16.277 -0.276205 -1.8518e-06 -67.9536 
36.346 88.416 15.43 -52.627 -86.5711 76.2577 0 -0 0 11.3967 -14.7286 -12.9834 27.9124 -11.0041 -8.61908e-05 42.6717 7.92825 -6.29594 -1.91402e-06 78.4918 -2.34306e-06 1.7796 6.02764 0.0936999 -23.2199 9.99884 2.11241e-05 -50.2898 -5.98994 18.2968 0 -78.1052 0 6.45977 -0.394507 -0.0223001 8.83952 4.82545 -10.4194 7.6104 -12.456 -38.8289 -0 -0 36.0873 -3.73266e-06 4.91964 7.4199 0.636895 -8.14414e-06 -71.0737 1.23424 1.60706 -5.11925 -0 -0 16.1893 1.10199e-05 -1.47935 17.9733 -0.456595 -3.41895e-06 -68.7649 
34.827 88.424 15.304 -54.1186 -86.4691 77.7822 0 -0 0 12.1121 -15.0456 -13.1634 27.895 -11.0576 -6.68406e-05 42.7324 7.99958 -7.45738 -0 77.2675 -0 1.22117 6.17855 0.0658977 -22.8633 9.77556 -5.81997e-05 -50.1772 -6.1988 18.5761 0 -79.8326 0 6.71131 -0.662205 -0.0388002 8.34341 4.90536 -10.5666 8.37842 -12.1767 -39.1084 -0 -0 32.8095 3.43399e-06 5.63421 7.56849 0.744392 2.90283e-06 -72.1988 1.52171 1.98705 -4.18869 -0 -0 15.8006 1.8024e-06 -1.94661 19.5446 -0.651393 -4.98909e-06 -69.6716 
